<svg xmlns="http://www.w3.org/2000/svg" xmlns:xlink="http://www.w3.org/1999/xlink" width="500" zoomAndPan="magnify" viewBox="0 0 375 374.999991" height="500" preserveAspectRatio="xMidYMid meet" version="1.0"><defs><g/></defs><path stroke-linecap="butt" transform="matrix(0.75, 0, 0, 0.75, 91.066859, 208.021597)" fill="none" stroke-linejoin="miter" d="M -0.000603027 6.002455 L 215.629619 6.002455 " stroke="#000000" stroke-width="12" stroke-opacity="1" stroke-miterlimit="4"/><g fill="#000000" fill-opacity="1"><g transform="translate(91.066859, 195.455211)"><g><path d="M 31.8125 -7.703125 L 31.8125 0 L 3.53125 0 L 3.53125 -35.234375 L 31.15625 -35.234375 L 31.15625 -27.53125 L 13.390625 -27.53125 L 13.390625 -21.59375 L 29.046875 -21.59375 L 29.046875 -14.140625 L 13.390625 -14.140625 L 13.390625 -7.703125 Z M 31.8125 -7.703125 "/></g></g></g><g fill="#000000" fill-opacity="1"><g transform="translate(129.276087, 195.455211)"><g><path d="M 30.609375 -18.375 C 32.617188 -17.664062 34.191406 -16.566406 35.328125 -15.078125 C 36.472656 -13.585938 37.046875 -11.785156 37.046875 -9.671875 C 37.046875 -6.578125 35.804688 -4.191406 33.328125 -2.515625 C 30.847656 -0.835938 27.253906 0 22.546875 0 L 3.53125 0 L 3.53125 -35.234375 L 21.546875 -35.234375 C 26.046875 -35.234375 29.46875 -34.398438 31.8125 -32.734375 C 34.164062 -31.078125 35.34375 -28.84375 35.34375 -26.03125 C 35.34375 -24.351562 34.929688 -22.847656 34.109375 -21.515625 C 33.285156 -20.191406 32.117188 -19.144531 30.609375 -18.375 Z M 13.390625 -28.046875 L 13.390625 -21.25 L 20.234375 -21.25 C 23.585938 -21.25 25.265625 -22.390625 25.265625 -24.671875 C 25.265625 -26.921875 23.585938 -28.046875 20.234375 -28.046875 Z M 21.75 -7.203125 C 25.238281 -7.203125 26.984375 -8.394531 26.984375 -10.78125 C 26.984375 -13.15625 25.238281 -14.34375 21.75 -14.34375 L 13.390625 -14.34375 L 13.390625 -7.203125 Z M 21.75 -7.203125 "/></g></g></g><g fill="#000000" fill-opacity="1"><g transform="translate(172.368365, 195.455211)"><g><path d="M 31.8125 -7.703125 L 31.8125 0 L 3.53125 0 L 3.53125 -35.234375 L 31.15625 -35.234375 L 31.15625 -27.53125 L 13.390625 -27.53125 L 13.390625 -21.59375 L 29.046875 -21.59375 L 29.046875 -14.140625 L 13.390625 -14.140625 L 13.390625 -7.703125 Z M 31.8125 -7.703125 "/></g></g></g><g fill="#000000" fill-opacity="1"><g transform="translate(210.577594, 195.455211)"><g><path d="M 37.046875 -35.234375 L 37.046875 0 L 28.84375 0 L 13.296875 -18.78125 L 13.296875 0 L 3.53125 0 L 3.53125 -35.234375 L 11.734375 -35.234375 L 27.28125 -16.46875 L 27.28125 -35.234375 Z M 37.046875 -35.234375 "/></g></g></g></svg>